<svg width="250" height="101" viewBox="0 0 250 101" fill="none" xmlns="http://www.w3.org/2000/svg">
<g clip-path="url(#clip0_107_6)">
<path d="M58.51 61.77C52.77 60.59 49.73 57.38 49.67 52.74C49.6 48.01 52.66 44.7 58.45 43.44C59.03 39.4 57.79 34.83 61.2 31.3C64.68 27.69 69.16 28.67 73.34 28.43C76.09 20.12 84.58 16.55 92.6 20.32C96.13 21.98 97.84 24.94 97.89 28.81C97.94 33.6 97.9 38.4 97.9 43.4H152.09C152.09 38.88 152.08 34.49 152.09 30.1C152.11 22.91 155.51 19.54 162.75 19.5C163.44 19.5 164.12 19.5 164.81 19.5C172.18 19.5 174.53 21.28 176.52 28.3C185.593 29.1333 190.603 34.0933 191.55 43.18C198.15 45.67 200.63 48.51 200.31 53.22C200.01 57.63 197.25 60.39 191.5 61.9C191.04 65.98 192.16 70.53 188.69 74.03C185.19 77.57 180.69 76.55 176.53 76.79C174.61 83.9 172.19 85.72 164.77 85.73C163.69 85.73 162.61 85.75 161.53 85.72C155.8 85.55 152.2 81.99 152.1 76.27C152.02 71.49 152.08 66.72 152.08 61.79H97.9C97.9 66.15 97.9 70.42 97.9 74.69C97.9 82.48 94.64 85.71 86.79 85.73C86.01 85.73 85.22 85.73 84.44 85.73C77.81 85.69 75.07 83.48 73.56 76.83C69.43 76.46 64.9 77.63 61.37 74.12C57.87 70.63 58.89 66.11 58.5 61.78L58.51 61.77ZM79.76 52.6C79.76 60.14 79.74 67.68 79.76 75.22C79.77 78.77 80.73 79.66 84.33 79.7C85.02 79.7 85.7 79.7 86.39 79.7C91.29 79.7 91.88 79.1 91.88 74.07C91.88 60.26 91.88 46.45 91.88 32.64C91.88 25.52 91.84 25.48 84.65 25.52C80.55 25.54 79.76 26.34 79.75 30.56C79.74 37.91 79.75 45.25 79.75 52.6H79.76ZM170.23 52.92C170.23 45.28 170.25 37.64 170.23 30C170.22 26.45 169.26 25.56 165.66 25.52C164.97 25.52 164.29 25.52 163.6 25.52C158.7 25.52 158.11 26.12 158.11 31.15C158.11 44.96 158.11 58.77 158.11 72.58C158.11 79.7 158.15 79.74 165.33 79.71C169.43 79.69 170.22 78.89 170.23 74.67C170.24 67.42 170.23 60.18 170.23 52.93V52.92ZM98.04 55.37H151.85V49.8H98.04V55.37ZM73.52 70.44V34.49C72.3 34.49 71.33 34.49 70.36 34.49C65.38 34.49 64.78 35.08 64.77 40.02C64.77 47.76 64.77 55.49 64.77 63.23C64.77 70.74 65.22 71.16 72.8 70.67C72.98 70.66 73.16 70.56 73.51 70.44H73.52ZM176.37 70.71C178.38 70.71 180.04 70.76 181.7 70.7C183.89 70.62 185.2 69.54 185.2 67.24C185.2 57.45 185.21 47.66 185.2 37.86C185.2 35.88 184.1 34.71 182.17 34.57C180.26 34.43 178.34 34.54 176.38 34.54V70.71H176.37ZM58.45 49.9C58.18 49.77 57.91 49.63 57.63 49.5C57 50.61 55.89 51.72 55.88 52.83C55.88 53.79 57.14 54.75 57.84 55.71C58.04 55.57 58.24 55.42 58.45 55.28V49.91V49.9ZM192.36 49.54C192.1 49.69 191.83 49.85 191.57 50V55.34C191.82 55.46 192.06 55.58 192.31 55.7C192.96 54.68 194.11 53.66 194.11 52.64C194.11 51.61 192.99 50.57 192.36 49.54Z" fill="#021024"/>
<path d="M79.7601 52.6C79.7601 45.25 79.7601 37.91 79.7601 30.56C79.7601 26.34 80.5601 25.54 84.6601 25.52C91.8401 25.48 91.89 25.52 91.89 32.64C91.89 46.45 91.89 60.26 91.89 74.07C91.89 79.1 91.3001 79.69 86.4001 79.7C85.7101 79.7 85.03 79.7 84.34 79.7C80.74 79.66 79.79 78.77 79.77 75.22C79.74 67.68 79.77 60.14 79.77 52.6H79.7601Z" fill="#052659"/>
<path d="M170.23 52.92C170.23 60.17 170.23 67.41 170.23 74.66C170.23 78.88 169.43 79.68 165.33 79.7C158.15 79.74 158.11 79.7 158.11 72.57C158.11 58.76 158.11 44.95 158.11 31.14C158.11 26.11 158.7 25.52 163.6 25.51C164.29 25.51 164.97 25.51 165.66 25.51C169.26 25.55 170.21 26.44 170.23 29.99C170.26 37.63 170.23 45.27 170.23 52.91V52.92Z" fill="#052659"/>
<path d="M98.04 55.37V49.8H151.85V55.37H98.04Z" fill="#052659"/>
<path d="M73.52 70.44C73.17 70.56 72.99 70.66 72.81 70.67C65.23 71.16 64.78 70.74 64.78 63.23C64.78 55.49 64.78 47.76 64.78 40.02C64.78 35.08 65.39 34.49 70.37 34.49C71.34 34.49 72.31 34.49 73.53 34.49V70.44H73.52Z" fill="#052659"/>
<path d="M176.37 70.71V34.54C178.33 34.54 180.25 34.43 182.16 34.57C184.09 34.71 185.19 35.88 185.19 37.86C185.21 47.65 185.21 57.44 185.19 67.24C185.19 69.54 183.88 70.62 181.69 70.7C180.03 70.76 178.37 70.71 176.36 70.71H176.37Z" fill="#052659"/>
<path d="M58.45 49.9V55.27C58.25 55.41 58.05 55.56 57.84 55.7C57.14 54.74 55.88 53.78 55.88 52.82C55.88 51.71 57 50.6 57.63 49.49C57.9 49.62 58.17 49.76 58.45 49.89V49.9Z" fill="#052659"/>
<path d="M192.36 49.54C192.99 50.57 194.12 51.61 194.11 52.64C194.11 53.66 192.95 54.68 192.31 55.7C192.06 55.58 191.82 55.46 191.57 55.34V50C191.83 49.85 192.1 49.69 192.36 49.54Z" fill="#052659"/>
<path d="M103.347 76.3387V69.2202H96.2289V61.2803H103.347V54.1618H111.287V61.2803H118.406V69.2202H111.287V76.3387H103.347Z" fill="#5483B3"/>
<path d="M120.475 68.96V18.7639H133.737C136.513 18.7639 138.709 19.3819 140.325 20.6178C141.96 21.8537 143.129 23.6124 143.833 25.8941C144.536 28.1757 144.888 30.8947 144.888 34.0509C144.888 37.0931 144.593 39.7455 144.004 42.0081C143.415 44.2518 142.359 45.9915 140.838 47.2274C139.336 48.4633 137.197 49.0812 134.421 49.0812H130.343V68.96H120.475ZM130.343 40.0687H130.913C132.776 40.0687 133.917 39.5459 134.336 38.5001C134.754 37.4544 134.963 35.9143 134.963 33.8798C134.963 31.9784 134.754 30.5144 134.336 29.4876C133.936 28.4419 132.976 27.919 131.455 27.919H130.343V40.0687Z" fill="#5483B3"/>
<path d="M132.305 101.38V51.1839H152.383V60.9664H142.401V68.9522H151.87V78.6206H142.401V101.38H132.305Z" fill="#5483B3"/>
</g>
<defs>
<clipPath id="clip0_107_6">
<rect width="250" height="100" fill="white" transform="translate(0 0.5)"/>
</clipPath>
</defs>
</svg>
