<svg width="678" height="240" viewBox="0 0 678 240" fill="none" xmlns="http://www.w3.org/2000/svg">
<g clip-path="url(#clip0_125_6)">
<path d="M74.38 142.67C63.54 140.43 57.79 134.38 57.67 125.61C57.54 116.68 63.31 110.41 74.27 108.04C75.37 100.4 73.03 91.77 79.46 85.1C86.03 78.28 94.49 80.14 102.4 79.68C107.59 63.99 123.63 57.23 138.79 64.36C145.46 67.5 148.7 73.09 148.78 80.4C148.88 89.46 148.8 98.52 148.8 107.96H251.18C251.18 99.42 251.16 91.13 251.18 82.83C251.22 69.25 257.64 62.89 271.33 62.8C272.63 62.8 273.92 62.8 275.22 62.8C289.15 62.82 293.59 66.15 297.35 79.43C314.497 81.0033 323.96 90.3733 325.74 107.54C338.2 112.24 342.89 117.61 342.28 126.5C341.71 134.83 336.51 140.05 325.63 142.9C324.77 150.62 326.88 159.2 320.33 165.82C313.71 172.5 305.22 170.57 297.36 171.03C293.74 184.47 289.16 187.91 275.15 187.92C273.11 187.92 271.07 187.96 269.03 187.9C258.21 187.57 251.39 180.85 251.21 170.05C251.05 161.03 251.18 152 251.18 142.68H148.8C148.8 150.91 148.8 158.98 148.8 167.06C148.78 181.77 142.63 187.88 127.82 187.92C126.34 187.92 124.85 187.92 123.37 187.92C110.85 187.85 105.67 183.67 102.82 171.1C95.01 170.4 86.45 172.61 79.8 165.97C73.18 159.38 75.1 150.84 74.38 142.66V142.67ZM114.52 125.35C114.52 139.6 114.48 153.85 114.54 168.1C114.57 174.81 116.37 176.5 123.17 176.56C124.47 176.57 125.76 176.56 127.06 176.56C136.32 176.56 137.43 175.43 137.43 165.93C137.43 139.84 137.43 113.75 137.43 87.65C137.43 74.2 137.35 74.12 123.78 74.19C116.04 74.23 114.54 75.74 114.53 83.71C114.51 97.59 114.53 111.47 114.53 125.35H114.52ZM285.46 125.96C285.46 111.53 285.5 97.09 285.44 82.66C285.41 75.94 283.61 74.26 276.81 74.2C275.51 74.19 274.22 74.2 272.92 74.2C263.66 74.2 262.55 75.33 262.55 84.83C262.55 110.92 262.55 137.01 262.55 163.11C262.55 176.56 262.63 176.64 276.2 176.57C283.94 176.53 285.44 175.02 285.45 167.05C285.47 153.36 285.45 139.66 285.45 125.97L285.46 125.96ZM149.06 130.59H250.73V120.07H149.06V130.59ZM102.73 159.07V91.14C100.43 91.14 98.6 91.14 96.77 91.14C87.36 91.14 86.22 92.25 86.21 101.59C86.2 116.21 86.21 130.82 86.21 145.44C86.21 159.63 87.06 160.42 101.39 159.5C101.74 159.48 102.07 159.29 102.74 159.06L102.73 159.07ZM297.06 159.58C300.86 159.58 304 159.68 307.13 159.56C311.26 159.4 313.74 157.37 313.74 153.02C313.76 134.52 313.76 116.02 313.73 97.51C313.73 93.76 311.65 91.56 308 91.3C304.4 91.04 300.76 91.24 297.06 91.24V159.58ZM74.26 120.25C73.75 120 73.23 119.74 72.72 119.49C71.53 121.59 69.42 123.68 69.42 125.78C69.42 127.59 71.79 129.41 73.12 131.22C73.5 130.95 73.88 130.68 74.27 130.41V120.26L74.26 120.25ZM327.27 119.56C326.77 119.85 326.27 120.14 325.78 120.43V130.53C326.25 130.76 326.71 130.98 327.18 131.21C328.41 129.28 330.58 127.36 330.59 125.43C330.6 123.49 328.47 121.53 327.28 119.57L327.27 119.56Z" fill="#021024"/>
<path d="M114.52 125.35C114.52 111.47 114.5 97.59 114.52 83.71C114.53 75.74 116.03 74.23 123.77 74.19C137.34 74.12 137.42 74.21 137.42 87.65C137.42 113.74 137.42 139.83 137.42 165.93C137.42 175.43 136.31 176.55 127.05 176.56C125.75 176.56 124.46 176.57 123.16 176.56C116.36 176.49 114.56 174.81 114.53 168.1C114.47 153.85 114.51 139.6 114.51 125.35H114.52Z" fill="#052659"/>
<path d="M285.46 125.96C285.46 139.65 285.48 153.35 285.46 167.04C285.45 175.01 283.95 176.52 276.21 176.56C262.64 176.63 262.56 176.54 262.56 163.1C262.56 137.01 262.56 110.92 262.56 84.82C262.56 75.32 263.67 74.2 272.93 74.19C274.23 74.19 275.52 74.18 276.82 74.19C283.62 74.26 285.42 75.94 285.45 82.65C285.51 97.08 285.47 111.52 285.47 125.95L285.46 125.96Z" fill="#052659"/>
<path d="M149.06 130.59V120.07H250.73V130.59H149.06Z" fill="#052659"/>
<path d="M102.73 159.07C102.06 159.29 101.73 159.48 101.38 159.51C87.05 160.43 86.2 159.64 86.2 145.45C86.2 130.83 86.2 116.22 86.2 101.6C86.2 92.26 87.35 91.14 96.76 91.15C98.59 91.15 100.43 91.15 102.72 91.15V159.08L102.73 159.07Z" fill="#052659"/>
<path d="M297.06 159.58V91.24C300.76 91.24 304.4 91.04 308 91.3C311.65 91.56 313.72 93.77 313.73 97.51C313.76 116.01 313.76 134.51 313.74 153.02C313.74 157.37 311.26 159.41 307.13 159.56C304 159.68 300.87 159.58 297.06 159.58Z" fill="#052659"/>
<path d="M74.2599 120.25V130.4C73.8799 130.67 73.4999 130.94 73.1099 131.21C71.7799 129.4 69.3999 127.58 69.4099 125.77C69.4099 123.67 71.5199 121.58 72.7099 119.48C73.2199 119.73 73.7399 119.99 74.2499 120.24L74.2599 120.25Z" fill="#052659"/>
<path d="M327.27 119.56C328.46 121.51 330.6 123.47 330.58 125.42C330.57 127.36 328.4 129.28 327.17 131.2C326.7 130.97 326.24 130.75 325.77 130.52V120.42C326.27 120.13 326.77 119.84 327.26 119.55L327.27 119.56Z" fill="#052659"/>
<path d="M159.088 169.375V155.924H145.637V140.921H159.088V127.47H174.091V140.921H187.542V155.924H174.091V169.375H159.088Z" fill="#5483B3"/>
<path d="M191.443 155.89V61.0494H216.5C221.745 61.0494 225.895 62.2169 228.948 64.552C232.038 66.8871 234.247 70.2101 235.576 74.5211C236.906 78.832 237.57 83.9692 237.57 89.9327C237.57 95.6806 237.013 100.692 235.9 104.967C234.786 109.206 232.792 112.493 229.918 114.828C227.08 117.163 223.039 118.331 217.794 118.331H210.088V155.89H191.443ZM210.088 101.303H211.166C214.686 101.303 216.842 100.315 217.632 98.339C218.422 96.3632 218.818 93.4533 218.818 89.6094C218.818 86.0169 218.422 83.2507 217.632 81.3108C216.878 79.3349 215.063 78.347 212.19 78.347H210.088V101.303Z" fill="#5483B3"/>
<path d="M213.803 217.15V122.309H251.74V140.793H232.879V155.881H250.77V174.148H232.879V217.15H213.803Z" fill="#5483B3"/>
</g>
<path d="M361.871 135.447V128.845H355.27V121.482H361.871V114.88H369.234V121.482H375.836V128.845H369.234V135.447H361.871ZM379.581 145V89.1406H394.339C397.429 89.1406 399.872 89.8283 401.671 91.2036C403.491 92.5789 404.792 94.5361 405.575 97.0752C406.358 99.6143 406.749 102.64 406.749 106.152C406.749 109.538 406.421 112.489 405.765 115.007C405.109 117.504 403.935 119.44 402.242 120.815C400.571 122.191 398.19 122.878 395.101 122.878H390.562V145H379.581ZM390.562 112.849H391.197C393.271 112.849 394.54 112.267 395.006 111.104C395.471 109.94 395.704 108.226 395.704 105.962C395.704 103.846 395.471 102.217 395.006 101.074C394.562 99.9105 393.493 99.3286 391.8 99.3286H390.562V112.849ZM410.304 145V95.4883H427.125C429.981 95.4883 432.161 96.0913 433.663 97.2974C435.187 98.5034 436.223 100.164 436.773 102.28C437.324 104.375 437.599 106.777 437.599 109.485C437.599 112.891 437.133 115.589 436.202 117.578C435.271 119.567 433.769 120.932 431.695 121.672C433.578 121.969 434.911 122.815 435.694 124.211C436.498 125.608 436.9 127.449 436.9 129.734V145H425.824V129.004C425.824 127.375 425.485 126.37 424.808 125.989C424.152 125.587 423.084 125.386 421.603 125.386V145H410.304ZM421.666 115.706H424.364C425.908 115.706 426.681 114.055 426.681 110.754C426.681 108.765 426.511 107.454 426.173 106.819C425.834 106.163 425.2 105.835 424.269 105.835H421.666V115.706ZM439.757 145L445.152 95.4883H464.1L469.4 145H458.832L458.102 135.986H451.246L450.611 145H439.757ZM454.229 104.375L452.167 127.068H457.054L454.737 104.375H454.229ZM472.828 145V89.1406H495.172V100.027H484.063V108.914H494.601V119.673H484.063V145H472.828ZM498.282 145V95.4883H509.073V145H498.282ZM518.309 145V106.216H511.676V95.4883H536.114V106.216H529.481V145H518.309ZM539.225 145V95.4883H550.714L556.49 122.339V95.4883H566.646V145H555.729L549.508 118.181V145H539.225ZM571.598 145V95.4883H593.941V106.279H582.96V114.468H593.497V124.973H582.96V134.114H594.671V145H571.598ZM611.651 145.508C606.552 145.508 602.87 144.238 600.606 141.699C598.364 139.16 597.242 135.119 597.242 129.575V127.766H608.287V131.099C608.287 132.389 608.478 133.405 608.858 134.146C609.26 134.865 609.948 135.225 610.921 135.225C611.937 135.225 612.635 134.96 613.016 134.431C613.418 133.881 613.619 133.088 613.619 132.051C613.619 130.675 613.154 129.512 612.223 128.56C611.313 127.607 609.8 126.317 607.684 124.688L602.86 120.942C600.807 119.355 599.358 117.599 598.512 115.674C597.665 113.748 597.242 111.41 597.242 108.66C597.242 104.364 598.342 101.011 600.543 98.5986C602.765 96.1865 605.97 94.9805 610.16 94.9805C615.28 94.9805 618.909 96.3135 621.046 98.9795C623.204 101.646 624.283 105.56 624.283 110.723H612.953V107.993C612.953 106.174 612.106 105.264 610.414 105.264C609.567 105.264 608.943 105.518 608.541 106.025C608.139 106.512 607.938 107.147 607.938 107.93C607.938 108.713 608.118 109.453 608.478 110.151C608.858 110.828 609.726 111.717 611.08 112.817L617.523 118.054C619.872 119.958 621.649 121.958 622.855 124.053C624.061 126.147 624.664 128.866 624.664 132.209C624.664 134.537 624.241 136.716 623.395 138.748C622.569 140.779 621.205 142.419 619.3 143.667C617.396 144.894 614.846 145.508 611.651 145.508ZM641.676 145.508C636.576 145.508 632.895 144.238 630.631 141.699C628.388 139.16 627.267 135.119 627.267 129.575V127.766H638.312V131.099C638.312 132.389 638.502 133.405 638.883 134.146C639.285 134.865 639.972 135.225 640.946 135.225C641.961 135.225 642.66 134.96 643.041 134.431C643.443 133.881 643.644 133.088 643.644 132.051C643.644 130.675 643.178 129.512 642.247 128.56C641.337 127.607 639.824 126.317 637.708 124.688L632.884 120.942C630.832 119.355 629.382 117.599 628.536 115.674C627.69 113.748 627.267 111.41 627.267 108.66C627.267 104.364 628.367 101.011 630.567 98.5986C632.789 96.1865 635.995 94.9805 640.184 94.9805C645.305 94.9805 648.933 96.3135 651.07 98.9795C653.229 101.646 654.308 105.56 654.308 110.723H642.977V107.993C642.977 106.174 642.131 105.264 640.438 105.264C639.592 105.264 638.967 105.518 638.565 106.025C638.163 106.512 637.962 107.147 637.962 107.93C637.962 108.713 638.142 109.453 638.502 110.151C638.883 110.828 639.75 111.717 641.104 112.817L647.547 118.054C649.896 119.958 651.673 121.958 652.879 124.053C654.085 126.147 654.688 128.866 654.688 132.209C654.688 134.537 654.265 136.716 653.419 138.748C652.594 140.779 651.229 142.419 649.325 143.667C647.42 144.894 644.871 145.508 641.676 145.508Z" fill="white"/>
<defs>
<clipPath id="clip0_125_6">
<rect width="400" height="240" fill="white"/>
</clipPath>
</defs>
</svg>
