<svg width="300" height="57" viewBox="0 0 300 57" fill="none" xmlns="http://www.w3.org/2000/svg">
<path d="M6.87109 46.4468V39.8452H0.269531V32.4819H6.87109V25.8804H14.2344V32.4819H20.8359V39.8452H14.2344V46.4468H6.87109ZM24.5811 56V0.140625H39.3394C42.4285 0.140625 44.8724 0.828288 46.6709 2.20361C48.4906 3.57894 49.7918 5.53613 50.5747 8.0752C51.3576 10.6143 51.749 13.64 51.749 17.1523C51.749 20.5378 51.4211 23.4894 50.7651 26.0073C50.1092 28.5041 48.9349 30.4401 47.2422 31.8154C45.5706 33.1908 43.1903 33.8784 40.1011 33.8784H35.5625V56H24.5811ZM35.5625 23.8491H36.1973C38.2708 23.8491 39.5404 23.2673 40.0059 22.1035C40.4714 20.9398 40.7041 19.2259 40.7041 16.9619C40.7041 14.846 40.4714 13.2168 40.0059 12.0742C39.5615 10.9105 38.493 10.3286 36.8003 10.3286H35.5625V23.8491ZM55.3037 56V6.48828H72.125C74.9814 6.48828 77.1608 7.09131 78.6631 8.29736C80.1865 9.50342 81.2233 11.1644 81.7734 13.2803C82.3236 15.375 82.5986 17.7765 82.5986 20.4849C82.5986 23.8914 82.1331 26.5892 81.2021 28.5781C80.2712 30.5671 78.7689 31.9318 76.6953 32.6724C78.5785 32.9686 79.9115 33.8149 80.6943 35.2114C81.4984 36.6079 81.9004 38.4487 81.9004 40.7339V56H70.8237V40.0039C70.8237 38.3747 70.4852 37.3696 69.8081 36.9888C69.1522 36.5868 68.0837 36.3857 66.6025 36.3857V56H55.3037ZM66.666 26.7056H69.3638C70.9084 26.7056 71.6807 25.0552 71.6807 21.7544C71.6807 19.7655 71.5114 18.4536 71.1729 17.8188C70.8343 17.1629 70.1995 16.835 69.2686 16.835H66.666V26.7056ZM84.7568 56L90.1523 6.48828H109.1L114.4 56H103.832L103.102 46.9863H96.2461L95.6113 56H84.7568ZM99.2295 15.375L97.1665 38.0679H102.054L99.7373 15.375H99.2295ZM117.828 56V0.140625H140.172V11.0269H129.063V19.9136H139.601V30.6729H129.063V56H117.828ZM143.282 56V6.48828H154.073V56H143.282ZM163.309 56V17.2158H156.676V6.48828H181.114V17.2158H174.481V56H163.309ZM184.225 56V6.48828H195.714L201.49 33.3389V6.48828H211.646V56H200.729L194.508 29.1812V56H184.225ZM216.598 56V6.48828H238.941V17.2793H227.96V25.4678H238.497V35.9731H227.96V45.1138H239.671V56H216.598ZM256.651 56.5078C251.552 56.5078 247.87 55.2383 245.606 52.6992C243.364 50.1602 242.242 46.1188 242.242 40.5752V38.7661H253.287V42.0986C253.287 43.3893 253.478 44.4049 253.858 45.1455C254.26 45.8649 254.948 46.2246 255.921 46.2246C256.937 46.2246 257.635 45.9601 258.016 45.4312C258.418 44.881 258.619 44.0876 258.619 43.0508C258.619 41.6755 258.154 40.5117 257.223 39.5596C256.313 38.6074 254.8 37.3167 252.684 35.6875L247.86 31.9424C245.807 30.3555 244.358 28.5993 243.512 26.6738C242.665 24.7484 242.242 22.4103 242.242 19.6597C242.242 15.3644 243.342 12.0107 245.543 9.59863C247.765 7.18652 250.97 5.98047 255.16 5.98047C260.28 5.98047 263.909 7.31348 266.046 9.97949C268.204 12.6455 269.283 16.5599 269.283 21.7227H257.953V18.9932C257.953 17.1735 257.106 16.2637 255.414 16.2637C254.567 16.2637 253.943 16.5176 253.541 17.0254C253.139 17.512 252.938 18.1468 252.938 18.9297C252.938 19.7126 253.118 20.4531 253.478 21.1514C253.858 21.8285 254.726 22.7171 256.08 23.8174L262.523 29.0542C264.872 30.9585 266.649 32.958 267.855 35.0527C269.061 37.1475 269.664 39.8664 269.664 43.2095C269.664 45.5369 269.241 47.7163 268.395 49.7476C267.569 51.7788 266.205 53.4186 264.3 54.667C262.396 55.8942 259.846 56.5078 256.651 56.5078ZM286.676 56.5078C281.576 56.5078 277.895 55.2383 275.631 52.6992C273.388 50.1602 272.267 46.1188 272.267 40.5752V38.7661H283.312V42.0986C283.312 43.3893 283.502 44.4049 283.883 45.1455C284.285 45.8649 284.972 46.2246 285.946 46.2246C286.961 46.2246 287.66 45.9601 288.041 45.4312C288.443 44.881 288.644 44.0876 288.644 43.0508C288.644 41.6755 288.178 40.5117 287.247 39.5596C286.337 38.6074 284.824 37.3167 282.708 35.6875L277.884 31.9424C275.832 30.3555 274.382 28.5993 273.536 26.6738C272.69 24.7484 272.267 22.4103 272.267 19.6597C272.267 15.3644 273.367 12.0107 275.567 9.59863C277.789 7.18652 280.995 5.98047 285.184 5.98047C290.305 5.98047 293.933 7.31348 296.07 9.97949C298.229 12.6455 299.308 16.5599 299.308 21.7227H287.977V18.9932C287.977 17.1735 287.131 16.2637 285.438 16.2637C284.592 16.2637 283.967 16.5176 283.565 17.0254C283.163 17.512 282.962 18.1468 282.962 18.9297C282.962 19.7126 283.142 20.4531 283.502 21.1514C283.883 21.8285 284.75 22.7171 286.104 23.8174L292.547 29.0542C294.896 30.9585 296.673 32.958 297.879 35.0527C299.085 37.1475 299.688 39.8664 299.688 43.2095C299.688 45.5369 299.265 47.7163 298.419 49.7476C297.594 51.7788 296.229 53.4186 294.325 54.667C292.42 55.8942 289.871 56.5078 286.676 56.5078Z" fill="white"/>
</svg>
